# xmcd CD database file
# Copyright (C) 1993-1998 Ti Kan
# 
# Track frame offsets:
#     150
#     13300
#     27822
#     38882
#     49927
#     62220
#     74347
#     86780
#     99115
#     109075
#     120937
#     131895
#     143287
#     155405
#     165967
#     177842
#     190930
#     200660
# 
# Disc length: 2833 seconds
# 
# Revision: 1
# Processed by: cddbd v1.4b41PL1 Copyright (c) Steve Scherf et al.
# Submitted via: DiscPlay 4.0.4
# 
DISCID=f00b0f12
DTITLE=Laura Lee - Love More Than Pride
DYEAR=1900
DGENRE=
TTITLE0=Dirty Old Man
TTITLE1=Dirty Old Man
TTITLE2=I Need To Belong To Someone
TTITLE3=Wanted: Lover No Experience Necessary
TTITLE4=Up Tight Good Man
TTITLE5=He'll Break Your Heart
TTITLE6=Sure As Sin
TTITLE7=It's All Wrong, But It's Alright
TTITLE8=As Long As I Got You
TTITLE9=A Man With Some Back Bone
TTITLE10=Another Man's Woman
TTITLE11=It's How You Make It Good
TTITLE12=Hang It Up
TTITLE13=It Ain't What You Do (But How You Do It)
TTITLE14=That's How It Is
TTITLE15=But You Know I Love You
TTITLE16=Mama's Got A Good Thing
TTITLE17=Love More Than Pride
EXTD=
EXTT0=
EXTT1=
EXTT2=
EXTT3=
EXTT4=
EXTT5=
EXTT6=
EXTT7=
EXTT8=
EXTT9=
EXTT10=
EXTT11=
EXTT12=
EXTT13=
EXTT14=
EXTT15=
EXTT16=
EXTT17=
PLAYORDER=
